<svg width="57" height="56" viewBox="0 0 57 56" fill="none" xmlns="http://www.w3.org/2000/svg">
<rect x="0.333374" width="56" height="56" rx="12" fill="#457BFF" fill-opacity="0.08"/>
<rect x="0.833374" y="0.5" width="55" height="55" rx="11.5" stroke="black" stroke-opacity="0.04"/>
<g clip-path="url(#clip0_4164_674491)">
<mask id="mask0_4164_674491" style="mask-type:luminance" maskUnits="userSpaceOnUse" x="12" y="12" width="32" height="32">
<path d="M44 12H12V44H44V12Z" fill="white"/>
</mask>
<g mask="url(#mask0_4164_674491)">
<path d="M26.92 24.4399L15.6266 35.7333C15.0133 36.3466 14.6666 37.1866 14.6666 38.0533C14.6666 38.9199 15.0133 39.7599 15.6266 40.3733C16.9066 41.6533 18.9866 41.6533 20.2666 40.3733L31.5466 29.0933C33.4266 29.7333 35.48 29.5866 37.2533 28.6933C39.0266 27.7999 40.36 26.2266 40.96 24.3332C41.28 23.3866 41.3866 22.3732 41.2933 21.3732C41.2133 20.8132 40.8266 20.3466 40.2933 20.1732C39.76 19.9999 39.1733 20.1332 38.7733 20.5332L36.0933 23.2132C35.96 23.3466 35.76 23.4266 35.5733 23.4266C35.3866 23.4266 35.1866 23.3466 35.0533 23.2132L32.7866 20.9466C32.4933 20.6532 32.4933 20.1866 33.0666 19.6266L35.4666 17.2266C35.8666 16.8266 36.0133 16.2399 35.8266 15.7066C35.6533 15.1732 35.1866 14.7866 34.6266 14.7066C33.6266 14.6132 32.6266 14.7199 31.68 15.0399C29.7866 15.6399 28.2133 16.9732 27.3066 18.7466C26.4133 20.5199 26.2666 22.5732 26.9066 24.4532L26.92 24.4399Z" stroke="#457BFF" stroke-width="3" stroke-linecap="round" stroke-linejoin="round"/>
</g>
</g>
<defs>
<clipPath id="clip0_4164_674491">
<rect width="32" height="32" fill="white" transform="translate(12 12)"/>
</clipPath>
</defs>
</svg>
