<svg width="16" height="16" viewBox="0 0 16 16" fill="none" xmlns="http://www.w3.org/2000/svg">
<g clip-path="url(#clip0_1086_18355)">
<g mask="url(#mask0_1086_18355)">
<path d="M14.3401 5.93994L13.6334 6.16661" stroke="#457BFF" stroke-width="1.5" stroke-linecap="round" stroke-linejoin="round"/>
<path d="M2.36682 9.83325L1.66016 10.0599" stroke="#457BFF" stroke-width="1.5" stroke-linecap="round" stroke-linejoin="round"/>
<path d="M8 14.6663V13.9263" stroke="#457BFF" stroke-width="1.5" stroke-linecap="round" stroke-linejoin="round"/>
<path d="M8 1.33325V2.07325" stroke="#457BFF" stroke-width="1.5" stroke-linecap="round" stroke-linejoin="round"/>
<path d="M11.9134 13.3864L11.4801 12.7864" stroke="#457BFF" stroke-width="1.5" stroke-linecap="round" stroke-linejoin="round"/>
<path d="M4.08655 2.61328L4.51988 3.21328" stroke="#457BFF" stroke-width="1.5" stroke-linecap="round" stroke-linejoin="round"/>
<path d="M1.66016 5.93994L2.36682 6.16661" stroke="#457BFF" stroke-width="1.5" stroke-linecap="round" stroke-linejoin="round"/>
<path d="M14.3401 10.0599L13.6334 9.83325" stroke="#457BFF" stroke-width="1.5" stroke-linecap="round" stroke-linejoin="round"/>
<path d="M11.9134 2.61328L11.4801 3.21328" stroke="#457BFF" stroke-width="1.5" stroke-linecap="round" stroke-linejoin="round"/>
<path d="M4.08655 13.3864L4.51988 12.7864" stroke="#457BFF" stroke-width="1.5" stroke-linecap="round" stroke-linejoin="round"/>
<path d="M8 5.90659C8.22667 5.63992 8.62667 5.33325 9.23333 5.33325C10.2933 5.33325 11 6.32659 11 7.25325C11 9.18659 8.59333 10.6666 8 10.6666C7.40667 10.6666 5 9.18659 5 7.25325C5 6.32659 5.70667 5.33325 6.76667 5.33325C7.37333 5.33325 7.76667 5.63325 8 5.90659Z" stroke="#457BFF" stroke-width="1.5" stroke-linecap="round" stroke-linejoin="round"/>
</g>
</g>
</svg>
